<svg xmlns="http://www.w3.org/2000/svg" version="1.1" xmlns:xlink="http://www.w3.org/1999/xlink" width="1000" height="1000"><g clip-path="url(#SvgjsClipPath1003)"><rect width="1000" height="1000" fill="#ffffff"></rect><g transform="matrix(3.5,0,0,3.5,150,150)"><svg xmlns="http://www.w3.org/2000/svg" version="1.1" xmlns:xlink="http://www.w3.org/1999/xlink" width="200" height="200"><svg xmlns="http://www.w3.org/2000/svg" version="1.1" xmlns:xlink="http://www.w3.org/1999/xlink" viewBox="0 0 200 200"><rect width="200" height="200" fill="url('#gradient')"></rect><defs><linearGradient id="gradient" gradientTransform="rotate(45 0.5 0.5)"><stop offset="0%" stop-color="#33313b"></stop><stop offset="100%" stop-color="#6b86b0"></stop></linearGradient><clipPath id="SvgjsClipPath1003"><rect width="1000" height="1000" x="0" y="0" rx="350" ry="350"></rect></clipPath></defs><g><g fill="#5f592d" transform="matrix(3.5115260049533243,0,0,3.5115260049533243,8.769106336334005,125.98763522858346)" stroke="#30395d" stroke-width="0.2"><path d="M12.24-14.22L12.24-11.57L7.97-11.57L7.97 0L4.54 0L4.54-11.57L0.35-11.57L0.35-14.22L12.24-14.22ZM19.35-10.64L19.29-7.59L18.20-7.67Q16.65-7.67 16.21-6.69L16.21-6.69L16.21 0L12.92 0L12.92-10.57L16.01-10.57L16.11-9.21Q16.94-10.76 18.43-10.76L18.43-10.76Q18.96-10.76 19.35-10.64L19.35-10.64ZM29.42 0L26.13 0Q25.96-0.32 25.82-0.95L25.82-0.95Q24.91 0.20 23.28 0.20L23.28 0.20Q21.79 0.20 20.74-0.71Q19.70-1.61 19.70-2.98L19.70-2.98Q19.70-4.70 20.97-5.58Q22.24-6.46 24.66-6.46L24.66-6.46L25.67-6.46L25.67-7.01Q25.67-8.47 24.41-8.47L24.41-8.47Q23.24-8.47 23.24-7.31L23.24-7.31L19.95-7.31Q19.95-8.85 21.25-9.80Q22.56-10.76 24.58-10.76Q26.60-10.76 27.77-9.78Q28.95-8.79 28.97-7.07L28.97-7.07L28.97-2.39Q28.99-0.94 29.42-0.17L29.42-0.17L29.42 0ZM24.07-2.15L24.07-2.15Q24.69-2.15 25.09-2.41Q25.50-2.68 25.67-3.01L25.67-3.01L25.67-4.70L24.72-4.70Q23.00-4.70 23.00-3.15L23.00-3.15Q23.00-2.71 23.30-2.43Q23.60-2.15 24.07-2.15ZM30.38-5.36L30.38-5.36Q30.38-7.87 31.46-9.32Q32.55-10.76 34.49-10.76L34.49-10.76Q35.91-10.76 36.88-9.65L36.88-9.65L36.88-15L40.18-15L40.18 0L37.22 0L37.05-1.13Q36.04 0.20 34.47 0.20L34.47 0.20Q32.59 0.20 31.48-1.25Q30.38-2.70 30.38-5.36ZM33.68-5.76L33.67-5.16Q33.67-2.34 35.31-2.34L35.31-2.34Q36.41-2.34 36.88-3.26L36.88-3.26L36.88-7.29Q36.43-8.22 35.33-8.22L35.33-8.22Q33.81-8.22 33.68-5.76L33.68-5.76ZM47.16 0.20L47.16 0.20Q44.73 0.20 43.22-1.25Q41.72-2.71 41.72-5.03L41.72-5.03L41.72-5.30Q41.72-6.92 42.32-8.16Q42.92-9.40 44.07-10.08Q45.22-10.76 46.81-10.76L46.81-10.76Q49.03-10.76 50.32-9.38Q51.61-8.00 51.61-5.53L51.61-5.53L51.61-4.25L45.07-4.25Q45.24-3.36 45.84-2.85Q46.44-2.34 47.38-2.34L47.38-2.34Q48.95-2.34 49.82-3.44L49.82-3.44L51.33-1.66Q50.71-0.81 49.58-0.31Q48.46 0.20 47.16 0.20ZM46.79-8.22L46.79-8.22Q45.34-8.22 45.07-6.31L45.07-6.31L48.39-6.31L48.39-6.56Q48.41-7.35 47.99-7.79Q47.57-8.22 46.79-8.22Z"></path></g></g></svg></svg></g></g></svg>